<?xml version="1.0" standalone="no"?>
<!DOCTYPE svg PUBLIC "-//W3C//DTD SVG 20010904//EN"
 "http://www.w3.org/TR/2001/REC-SVG-20010904/DTD/svg10.dtd">
<svg version="1.0" xmlns="http://www.w3.org/2000/svg"
 width="1280.000000pt" height="1280.000000pt" viewBox="0 0 1280.000000 1280.000000"
 preserveAspectRatio="xMidYMid meet">
<metadata>
Created by potrace 1.14, written by Peter Selinger 2001-2017
</metadata>
<g transform="translate(0.000000,1280.000000) scale(0.100000,-0.100000)"
fill="#000000" stroke="none">
<path d="M1970 6755 l0 -675 125 0 125 0 0 195 0 195 179 0 179 0 137 -195
136 -195 135 0 c101 0 133 3 128 12 -4 6 -72 104 -151 216 -78 113 -143 208
-143 211 0 4 23 17 51 30 100 48 192 166 218 282 13 57 13 181 0 238 -29 129
-118 238 -241 296 -124 59 -178 65 -549 65 l-329 0 0 -675z m692 446 c66 -21
130 -72 157 -125 21 -41 26 -64 26 -126 0 -96 -29 -159 -96 -207 -72 -51 -137
-63 -346 -63 l-183 0 0 271 0 271 203 -5 c115 -2 218 -9 239 -16z"/>
<path d="M10265 7213 c-697 -270 -1927 -744 -2182 -841 -112 -42 -203 -79
-203 -82 1 -3 31 -38 69 -79 l67 -74 415 161 c228 88 605 235 839 325 234 91
450 175 480 187 30 12 51 17 45 12 -5 -6 -248 -204 -540 -441 -554 -451 -601
-484 -726 -511 -76 -17 -229 -8 -300 16 -134 47 -159 70 -589 544 l-85 94 148
-78 148 -78 115 43 c62 24 114 47 114 50 0 4 -165 96 -367 204 -203 109 -507
273 -678 365 -409 220 -384 208 -365 184 8 -10 224 -248 479 -529 863 -947
818 -902 961 -969 158 -74 341 -84 505 -28 46 16 104 41 129 56 39 23 1991
1601 2051 1657 11 11 15 19 10 18 -6 0 -248 -93 -540 -206z"/>
<path d="M3410 7104 c-83 -17 -141 -39 -208 -76 l-53 -30 47 -86 c25 -48 48
-88 49 -90 1 -2 19 8 39 22 95 64 273 93 382 61 74 -21 126 -72 143 -138 23
-93 35 -87 -171 -87 -202 0 -284 -13 -366 -54 -164 -83 -203 -304 -77 -443 82
-92 240 -138 391 -115 94 15 149 38 203 87 l41 37 0 -56 0 -56 116 0 115 0 -3
368 c-3 356 -4 369 -26 425 -37 92 -90 150 -174 191 -40 20 -97 41 -127 46
-75 14 -244 11 -321 -6z m410 -647 c0 -55 -4 -70 -30 -105 -57 -79 -149 -118
-258 -110 -110 8 -172 60 -172 144 0 62 41 107 115 125 17 4 101 7 188 8 l157
1 0 -63z"/>
<path d="M4650 7106 c-61 -18 -122 -50 -165 -87 l-35 -31 0 61 0 61 -120 0
-120 0 0 -515 0 -515 125 0 125 0 0 298 c0 328 5 364 59 439 40 55 107 87 196
91 62 3 77 0 125 -25 46 -25 59 -38 85 -88 l30 -59 3 -328 3 -328 119 0 119 0
3 313 c3 301 4 314 26 362 28 60 64 100 117 128 32 17 57 22 127 22 80 0 90
-2 130 -30 27 -19 52 -48 68 -80 25 -50 25 -51 28 -382 l3 -333 120 0 119 0 1
283 c1 155 1 309 0 342 -3 135 -46 240 -128 315 -72 66 -142 92 -265 98 -158
7 -282 -34 -374 -125 l-39 -38 -55 56 c-76 77 -141 101 -280 105 -65 2 -122
-2 -150 -10z"/>
<path d="M6305 7104 c-71 -15 -217 -77 -236 -100 -10 -13 4 -48 58 -141 l24
-42 37 23 c99 62 265 92 370 66 95 -22 162 -104 162 -199 l0 -31 -177 0 c-250
0 -359 -27 -439 -107 -51 -50 -67 -90 -72 -174 -11 -183 95 -299 301 -331 140
-21 300 20 373 98 l34 35 0 -60 0 -61 110 0 110 0 0 343 -1 342 -156 170 c-86
94 -165 173 -177 177 -39 12 -251 6 -321 -8z m415 -652 c0 -60 -4 -74 -29
-109 -19 -26 -50 -51 -88 -69 -50 -25 -70 -29 -143 -29 -67 0 -92 4 -119 20
-53 31 -74 67 -73 121 1 105 62 133 295 134 l157 0 0 -68z"/>
<path d="M4432 5888 c-64 -10 -101 -28 -145 -72 -54 -53 -72 -100 -72 -186 0
-57 6 -85 22 -116 28 -53 89 -107 146 -129 63 -24 175 -18 240 14 l47 23 0
104 0 104 -25 0 c-25 0 -25 -1 -25 -89 l0 -89 -45 -17 c-68 -27 -163 -17 -217
20 -139 98 -110 323 48 375 57 19 163 9 203 -19 30 -21 34 -22 48 -8 14 14 14
19 3 32 -36 43 -135 66 -228 53z"/>
<path d="M5543 5889 c-29 -4 -73 -19 -97 -33 -176 -103 -165 -372 19 -461 48
-23 155 -31 212 -16 174 47 244 283 125 421 -60 71 -152 103 -259 89z m158
-72 c81 -43 125 -151 100 -245 -14 -51 -61 -106 -112 -133 -47 -23 -135 -25
-187 -4 -163 69 -169 310 -9 389 50 25 154 21 208 -7z"/>
<path d="M4830 5631 l0 -261 25 0 c24 0 24 2 27 83 l3 82 90 3 90 2 59 -85
c52 -73 64 -85 89 -85 33 0 35 -5 -40 102 l-54 77 28 15 c88 45 116 173 56
255 -40 52 -86 66 -235 69 l-138 4 0 -261z m280 194 c65 -34 89 -109 55 -175
-26 -50 -67 -64 -180 -65 l-100 0 -3 128 -3 127 101 0 c70 0 110 -5 130 -15z"/>
<path d="M5980 5722 c0 -236 21 -294 122 -336 79 -33 192 -14 251 42 45 43 57
105 57 294 l0 168 -30 0 -30 0 0 -181 c0 -202 -8 -236 -64 -270 -39 -24 -125
-25 -173 -2 -62 29 -73 69 -73 276 l0 177 -30 0 -30 0 0 -168z"/>
<path d="M6570 5630 l0 -260 30 0 30 0 0 78 0 79 107 6 c135 8 187 31 221 97
39 77 24 161 -37 213 -45 38 -90 47 -228 47 l-123 0 0 -260z m283 196 c46 -19
67 -55 67 -116 0 -91 -63 -130 -212 -130 l-78 0 0 130 0 130 95 0 c58 0 108
-5 128 -14z"/>
<path d="M9150 5855 c0 -10 11 -15 35 -15 l35 0 0 -95 c0 -88 1 -95 20 -95 19
0 20 7 20 95 l0 95 35 0 c24 0 35 5 35 15 0 12 -17 15 -90 15 -73 0 -90 -3
-90 -15z"/>
<path d="M9360 5761 c0 -104 1 -111 20 -111 18 0 20 7 21 63 l1 62 30 -62 c16
-35 35 -63 42 -63 7 0 27 30 44 68 l30 67 1 -67 c1 -61 3 -68 21 -68 19 0 20
7 20 111 0 108 -1 110 -22 107 -16 -2 -30 -23 -58 -85 l-37 -83 -35 83 c-27
61 -42 83 -57 85 -20 3 -21 -1 -21 -107z"/>
</g>
</svg>
